<svg xmlns="http://www.w3.org/2000/svg" viewBox="0 0 187.21 186.77"><defs><style>.cls-1{fill:#fff;}</style></defs><title>logoLewoufwouf</title><g id="Calque_2" data-name="Calque 2"><g id="Calque_1-2" data-name="Calque 1"><path class="cls-1" d="M35.72,156.08c0-2-.12-4,0-6,.28-3.63-.21-6.14-4.59-7.3-4.81-1.27-6.58-5.95-4.22-10.43C38.52,110.4,54.17,91.91,76,79.8c12.12-6.71,25.29-6,37.21,1.42,19.86,12.29,34.69,29.44,45.78,49.86,3.11,5.73,1.22,9.8-4.61,12.38a6.42,6.42,0,0,0-3.28,4.39c-.45,4.63-.11,9.32-.2,14-.24,13.34-11.66,24.69-25,24.94-9,.16-16-6.74-16.71-16.37-.2-2.8,0-5.85-1.06-8.33-3.63-8.52-11.45-7.15-18.53-7.07-6,.06-10.25,3-11.71,8.27a26.33,26.33,0,0,0-.55,6.42c-.28,11.76-9.49,19-20.89,16.43C42.1,182.85,35.72,173.62,35.72,156.08Zm67.47-38.77c0-11.82-.09-11.91-11.94-11.74-.67,0-1.33,0-2,0-4.11.08-6,2.24-6,6.28,0,1.65.06,3.31,0,5-.56,12.57,1.34,12.66,13,12.42,5-.1,6.74-1.93,6.92-7C103.23,120.63,103.18,119,103.19,117.31Z"/><path class="cls-1" d="M39.75,38.57c1.2-11.52,4-22,11-31,7.42-9.6,17.2-10.2,24.81-.82,11.38,14,15.74,30,9.79,47.63C82.15,63.74,76,71,65.37,71.41s-17.2-6.6-21.07-15.67C42,50.35,41.21,44.32,39.75,38.57Z"/><path class="cls-1" d="M98.58,42.06c.65-13.85,3.89-24.73,11.29-34C118.41-2.72,129-2.75,136.6,8.54c9.74,14.47,12.77,30.28,5.9,46.94-4.25,10.32-13.07,16.82-21.43,16-10.87-1-16.7-8.3-20-17.8C99.53,49.37,99.11,44.66,98.58,42.06Z"/><path class="cls-1" d="M187.21,68c-.65,13.73-3.25,23.86-11.74,31.52-5.21,4.71-11.3,7.37-18.3,5.05s-10.22-8-11.54-15c-2.77-14.71,8.21-34.89,22.13-40.55,6.69-2.72,12.49-1.08,15.47,5.49C185.51,59.51,186.41,65.16,187.21,68Z"/><path class="cls-1" d="M41.74,85.29c-.62,2.59-1,6.29-2.39,9.6-4,9.81-13.71,13.2-23,8.11C5.66,97.19,1,87.32.13,75.89a52.55,52.55,0,0,1,2.18-19.1C5.12,47.78,13,45.14,21,50.12,33.56,57.9,40.49,69.34,41.74,85.29Z"/></g></g></svg>